<svg width="20" height="20" viewBox="0 0 20 20" fill="none" xmlns="http://www.w3.org/2000/svg">
<path d="M14.0812 10.3312L7.83125 16.5812C7.74239 16.664 7.62486 16.7091 7.50342 16.707C7.38198 16.7048 7.26612 16.6556 7.18023 16.5698C7.09435 16.4839 7.04515 16.368 7.04301 16.2466C7.04087 16.1251 7.08595 16.0076 7.16875 15.9187L13.0867 10L7.16875 4.08125C7.08595 3.99239 7.04087 3.87486 7.04301 3.75342C7.04515 3.63198 7.09435 3.51612 7.18023 3.43023C7.26612 3.34435 7.38198 3.29515 7.50342 3.29301C7.62486 3.29087 7.74239 3.33595 7.83125 3.41875L14.0812 9.66875C14.169 9.75664 14.2183 9.87578 14.2183 10C14.2183 10.1242 14.169 10.2434 14.0812 10.3312Z" fill="#363636"/>
</svg>
