<svg width="20" height="20" viewBox="0 0 20 20" fill="none" xmlns="http://www.w3.org/2000/svg">
<path d="M9.21169 13.2883L2.96169 7.03831C2.87889 6.94945 2.83382 6.83192 2.83596 6.71048C2.8381 6.58904 2.8873 6.47318 2.97318 6.38729C3.05906 6.30141 3.17493 6.25222 3.29637 6.25007C3.4178 6.24793 3.53533 6.29301 3.62419 6.37581L9.54294 12.2938L15.4617 6.37581C15.5506 6.29301 15.6681 6.24793 15.7895 6.25007C15.911 6.25222 16.0268 6.30141 16.1127 6.38729C16.1986 6.47318 16.2478 6.58904 16.2499 6.71048C16.2521 6.83192 16.207 6.94945 16.1242 7.03831L9.87419 13.2883C9.7863 13.3761 9.66716 13.4254 9.54294 13.4254C9.41872 13.4254 9.29958 13.3761 9.21169 13.2883Z" fill="#363636"/>
</svg>
