<svg width="20" height="20" viewBox="0 0 20 20" fill="none" xmlns="http://www.w3.org/2000/svg">
<path d="M10.7883 6.71184L17.0383 12.9618C17.1211 13.0507 17.1662 13.1682 17.164 13.2897C17.1619 13.4111 17.1127 13.527 17.0268 13.6129C16.9409 13.6987 16.8251 13.7479 16.7036 13.7501C16.5822 13.7522 16.4647 13.7071 16.3758 13.6243L10.4571 7.70638L4.53831 13.6243C4.44945 13.7071 4.33192 13.7522 4.21048 13.7501C4.08904 13.7479 3.97318 13.6987 3.88729 13.6129C3.80141 13.527 3.75222 13.4111 3.75007 13.2897C3.74793 13.1682 3.79301 13.0507 3.87581 12.9618L10.1258 6.71184C10.2137 6.62406 10.3328 6.57476 10.4571 6.57476C10.5813 6.57476 10.7004 6.62406 10.7883 6.71184Z" fill="#363636"/>
</svg>
