<svg width="24" height="24" viewBox="0 0 24 24" fill="none" xmlns="http://www.w3.org/2000/svg">
<path d="M15.9595 18.901C16.0148 18.9525 16.0591 19.0146 16.0898 19.0836C16.1206 19.1526 16.1371 19.2271 16.1384 19.3026C16.1398 19.3781 16.1259 19.4531 16.0976 19.5232C16.0693 19.5932 16.0272 19.6568 15.9738 19.7102C15.9204 19.7637 15.8567 19.8058 15.7867 19.8341C15.7167 19.8624 15.6416 19.8762 15.5661 19.8749C15.4906 19.8736 15.4161 19.857 15.3471 19.8263C15.2781 19.7956 15.216 19.7512 15.1645 19.696L7.66451 12.196C7.55917 12.0905 7.5 11.9475 7.5 11.7985C7.5 11.6494 7.55917 11.5064 7.66451 11.401L15.1645 3.90097C15.2711 3.80161 15.4122 3.74752 15.5579 3.75009C15.7036 3.75266 15.8427 3.81169 15.9457 3.91475C16.0488 4.01781 16.1078 4.15685 16.1104 4.30258C16.113 4.4483 16.0589 4.58934 15.9595 4.69597L8.85794 11.7985L15.9595 18.901Z" fill="#343330"/>
</svg>
