<svg width="20" height="20" viewBox="0 0 20 20" fill="none" xmlns="http://www.w3.org/2000/svg">
<path d="M0.638298 5.69397H4.31915C4.46565 6.38926 4.85706 7.01437 5.42707 7.46336C5.99708 7.91236 6.71062 8.15764 7.44681 8.15764C8.18299 8.15764 8.89654 7.91236 9.46655 7.46336C10.0366 7.01437 10.428 6.38926 10.5745 5.69397H19.3617C19.531 5.69397 19.6933 5.62916 19.813 5.5138C19.9328 5.39843 20 5.24197 20 5.07882C20 4.91567 19.9328 4.75921 19.813 4.64385C19.6933 4.52848 19.531 4.46367 19.3617 4.46367H10.5745C10.428 3.76838 10.0366 3.14327 9.46655 2.69428C8.89654 2.24528 8.18299 2 7.44681 2C6.71062 2 5.99708 2.24528 5.42707 2.69428C4.85706 3.14327 4.46565 3.76838 4.31915 4.46367H0.638298C0.469011 4.46367 0.306657 4.52848 0.186953 4.64385C0.067249 4.75921 0 4.91567 0 5.07882C0 5.24197 0.067249 5.39843 0.186953 5.5138C0.306657 5.62916 0.469011 5.69397 0.638298 5.69397ZM7.44681 3.23338C7.82554 3.23338 8.19576 3.34161 8.51067 3.54439C8.82557 3.74717 9.07101 4.03539 9.21594 4.3726C9.36087 4.70981 9.3988 5.08087 9.32491 5.43885C9.25102 5.79683 9.06865 6.12566 8.80084 6.38375C8.53304 6.64183 8.19184 6.8176 7.82039 6.8888C7.44893 6.96001 7.06391 6.92346 6.71401 6.78379C6.36411 6.64411 6.06504 6.40758 5.85463 6.10409C5.64422 5.80061 5.53192 5.44381 5.53192 5.07882C5.53192 4.58938 5.73366 4.11998 6.09277 3.7739C6.45189 3.42781 6.93895 3.23338 7.44681 3.23338ZM19.3617 14.306H17.383C17.2365 13.6107 16.8451 12.9856 16.2751 12.5366C15.7051 12.0876 14.9915 11.8424 14.2553 11.8424C13.5191 11.8424 12.8056 12.0876 12.2356 12.5366C11.6656 12.9856 11.2742 13.6107 11.1277 14.306H0.638298C0.469011 14.306 0.306657 14.3708 0.186953 14.4862C0.067249 14.6016 0 14.758 0 14.9212C0 15.0843 0.067249 15.2408 0.186953 15.3562C0.306657 15.4715 0.469011 15.5363 0.638298 15.5363H11.1277C11.2742 16.2316 11.6656 16.8567 12.2356 17.3057C12.8056 17.7547 13.5191 18 14.2553 18C14.9915 18 15.7051 17.7547 16.2751 17.3057C16.8451 16.8567 17.2365 16.2316 17.383 15.5363H19.3617C19.531 15.5363 19.6933 15.4715 19.813 15.3562C19.9328 15.2408 20 15.0843 20 14.9212C20 14.758 19.9328 14.6016 19.813 14.4862C19.6933 14.3708 19.531 14.306 19.3617 14.306ZM14.2553 16.7666C13.8766 16.7666 13.5064 16.6584 13.1915 16.4556C12.8766 16.2528 12.6311 15.9646 12.4862 15.6274C12.3413 15.2902 12.3033 14.9191 12.3772 14.5612C12.4511 14.2032 12.6335 13.8743 12.9013 13.6163C13.1691 13.3582 13.5103 13.1824 13.8817 13.1112C14.2532 13.04 14.6382 13.0765 14.9881 13.2162C15.338 13.3559 15.6371 13.5924 15.8475 13.8959C16.0579 14.1994 16.1702 14.5562 16.1702 14.9212C16.1702 15.4106 15.9685 15.88 15.6094 16.2261C15.2502 16.5722 14.7632 16.7666 14.2553 16.7666Z" fill="#363636"/>
</svg>
