<svg width="24" height="20" viewBox="0 0 24 20" fill="none" xmlns="http://www.w3.org/2000/svg">
<path d="M22.2105 1.75016C21.0658 0.636248 19.5151 0.00994294 17.8979 0.00834849C16.2808 0.00675404 14.7288 0.63 13.5818 1.74165L12.0027 3.17514L10.4235 1.74165C9.2774 0.625495 7.72351 -0.000995971 6.10369 1.18853e-06C4.48387 0.000998348 2.9308 0.629402 1.78613 1.74697C0.641469 2.86454 -0.00102138 4.37972 1.21883e-06 5.95921C0.00102382 7.53869 0.645476 9.05308 1.79159 10.1692L11.537 19.8102C11.5979 19.8703 11.6704 19.9181 11.7503 19.9506C11.8302 19.9832 11.916 20 12.0027 20C12.0893 20 12.1751 19.9832 12.255 19.9506C12.335 19.9181 12.4075 19.8703 12.4683 19.8102L22.2105 10.1735C22.7778 9.62048 23.2279 8.9639 23.5349 8.24125C23.842 7.5186 24 6.74405 24 5.96183C24 5.17961 23.842 4.40505 23.5349 3.68241C23.2279 2.95976 22.7778 2.30317 22.2105 1.75016ZM21.2813 9.27384L12.0027 18.4533L2.72076 9.27065C1.82609 8.39216 1.32496 7.20372 1.32713 5.96566C1.32929 4.7276 1.83458 3.54084 2.73231 2.66532C3.63004 1.78981 4.84703 1.29692 6.11671 1.29461C7.38639 1.2923 8.60526 1.78076 9.50633 2.653C9.51163 2.65852 9.51747 2.6635 9.52378 2.66789L11.5566 4.51398C11.6777 4.62402 11.8371 4.6852 12.0027 4.6852C12.1682 4.6852 12.3276 4.62402 12.4487 4.51398L14.4815 2.66683C14.4879 2.66244 14.4937 2.65745 14.499 2.65194C14.9443 2.21518 15.4736 1.86843 16.0566 1.63157C16.6396 1.39471 17.2648 1.2724 17.8964 1.27166C18.5279 1.27092 19.1534 1.39176 19.737 1.62726C20.3206 1.86275 20.8508 2.20826 21.2971 2.64398C21.7434 3.07969 22.0972 3.59704 22.338 4.16635C22.5789 4.73566 22.7021 5.34573 22.7006 5.96158C22.6992 6.57743 22.573 7.18693 22.3295 7.75514C22.0859 8.32336 21.7297 8.83909 21.2813 9.27278V9.27384Z" fill="#343330"/>
</svg>
