<svg width="24" height="20" viewBox="0 0 24 20" fill="none" xmlns="http://www.w3.org/2000/svg">
<path d="M24 6.04641C24.0018 6.83969 23.8418 7.62545 23.5292 8.35824C23.2166 9.09103 22.7575 9.75631 22.1787 10.3156L12.6116 19.7515C12.5319 19.8302 12.4368 19.8927 12.332 19.9354C12.2271 19.978 12.1146 20 12.001 20C11.8873 20 11.7748 19.978 11.6699 19.9354C11.5651 19.8927 11.47 19.8302 11.3903 19.7515L1.82322 10.3156C0.656838 9.18333 0.00100572 7.64711 1.15574e-06 6.04488C-0.00100341 4.44266 0.652902 2.90567 1.81786 1.77203C2.98283 0.638396 4.56342 0.000977507 6.21193 1.12335e-06C7.86044 -0.000975261 9.44184 0.634571 10.6082 1.76683L12.001 3.03196L13.4033 1.76266C14.2738 0.920892 15.3812 0.348632 16.586 0.118124C17.7908 -0.112384 19.0388 0.00919535 20.1725 0.467512C21.3063 0.925829 22.2749 1.70034 22.9561 2.69326C23.6373 3.68618 24.0005 4.853 24 6.04641Z" fill="#343330"/>
</svg>
