<svg width="20" height="20" viewBox="0 0 20 20" fill="none" xmlns="http://www.w3.org/2000/svg">
<path d="M19.5638 8.58169L11.0532 0.418468C10.9149 0.285799 10.7507 0.180558 10.57 0.108757C10.3893 0.0369559 10.1956 0 10 0C9.8044 0 9.61072 0.0369559 9.43001 0.108757C9.2493 0.180558 9.08511 0.285799 8.94681 0.418468L0.436174 8.58169C0.297499 8.71409 0.187553 8.87153 0.112688 9.04492C0.0378232 9.21831 -0.000475679 9.40422 4.4591e-06 9.59189V19.3878C4.4591e-06 19.5501 0.0672534 19.7059 0.186957 19.8207C0.306661 19.9355 0.469015 20 0.638302 20H19.3617C19.531 20 19.6933 19.9355 19.813 19.8207C19.9327 19.7059 20 19.5501 20 19.3878V9.59189C20.0005 9.40422 19.9622 9.21831 19.8873 9.04492C19.8124 8.87153 19.7025 8.71409 19.5638 8.58169ZM18.7234 18.7755H1.2766V9.59189C1.27644 9.56503 1.2818 9.53841 1.29239 9.51354C1.30298 9.48868 1.31858 9.46606 1.3383 9.44699L9.84894 1.28377C9.86872 1.26464 9.89225 1.24946 9.91818 1.2391C9.9441 1.22874 9.97191 1.2234 10 1.2234C10.0281 1.2234 10.0559 1.22874 10.0818 1.2391C10.1078 1.24946 10.1313 1.26464 10.1511 1.28377L18.6617 9.44699C18.6814 9.46606 18.697 9.48868 18.7076 9.51354C18.7182 9.53841 18.7236 9.56503 18.7234 9.59189V18.7755Z" fill="#343330"/>
</svg>
