<svg width="20" height="20" viewBox="0 0 20 20" fill="none" xmlns="http://www.w3.org/2000/svg">
<path d="M20 9.60013V19.2C20 19.4122 19.9122 19.6157 19.7559 19.7657C19.5996 19.9157 19.3877 20 19.1667 20H0.833343C0.612329 20 0.400368 19.9157 0.244088 19.7657C0.0878079 19.6157 1.04724e-05 19.4122 1.04724e-05 19.2V9.60013C-0.000769433 9.38979 0.0420193 9.18139 0.125889 8.98705C0.209759 8.79272 0.333035 8.61633 0.488551 8.46815L8.82188 0.468252C9.13441 0.168425 9.55816 0 10 0C10.4418 0 10.8656 0.168425 11.1781 0.468252L19.5114 8.46815C19.667 8.61633 19.7902 8.79272 19.8741 8.98705C19.958 9.18139 20.0008 9.38979 20 9.60013Z" fill="#343330"/>
</svg>
