<svg width="20" height="20" viewBox="0 0 20 20" fill="none" xmlns="http://www.w3.org/2000/svg">
<path d="M17.8313 17.1687L13.8172 13.1547C14.9619 11.8383 15.5507 10.1289 15.4596 8.38684C15.3685 6.64477 14.6046 5.00612 13.3289 3.81631C12.0532 2.6265 10.3653 1.97849 8.62112 2.00886C6.87693 2.03924 5.21267 2.74564 3.97916 3.97915C2.74565 5.21267 2.03925 6.87692 2.00887 8.62111C1.97849 10.3653 2.62651 12.0531 3.81632 13.3289C5.00613 14.6046 6.64478 15.3685 8.38685 15.4596C10.1289 15.5507 11.8383 14.9618 13.1547 13.8172L17.1687 17.8312C17.2576 17.914 17.3751 17.9591 17.4966 17.957C17.618 17.9548 17.7339 17.9056 17.8198 17.8198C17.9056 17.7339 17.9548 17.618 17.957 17.4966C17.9591 17.3751 17.9141 17.2576 17.8313 17.1687ZM2.96875 8.74999C2.96875 7.60657 3.30782 6.48882 3.94307 5.5381C4.57832 4.58738 5.48123 3.84638 6.53761 3.40882C7.594 2.97125 8.75641 2.85676 9.87787 3.07983C10.9993 3.3029 12.0294 3.85351 12.838 4.66203C13.6465 5.47055 14.1971 6.50067 14.4202 7.62213C14.6432 8.74358 14.5287 9.906 14.0912 10.9624C13.6536 12.0188 12.9126 12.9217 11.9619 13.5569C11.0112 14.1922 9.89342 14.5312 8.75 14.5312C7.21729 14.5294 5.74789 13.9197 4.66409 12.8359C3.5803 11.7521 2.97061 10.2827 2.96875 8.74999Z" fill="#A9A6AA"/>
</svg>
