<svg width="16" height="16" viewBox="0 0 16 16" fill="none" xmlns="http://www.w3.org/2000/svg">
<path d="M14.8712 6.69996C14.8573 6.62955 14.8284 6.56297 14.7864 6.50473C14.7445 6.44649 14.6905 6.39797 14.6281 6.36246L12.7637 5.29996L12.7562 3.19871C12.756 3.12635 12.7401 3.05489 12.7096 2.98928C12.679 2.92368 12.6346 2.86548 12.5794 2.81871C11.9031 2.24665 11.1243 1.80825 10.2844 1.52684C10.2182 1.50445 10.1481 1.49616 10.0786 1.50252C10.0091 1.50887 9.94161 1.52971 9.88062 1.56371L8 2.61496L6.1175 1.56184C6.05647 1.52765 5.98894 1.50664 5.91929 1.50018C5.84963 1.49372 5.7794 1.50195 5.71312 1.52434C4.87373 1.80756 4.09577 2.24765 3.42062 2.82121C3.36548 2.86791 3.32111 2.92601 3.29057 2.9915C3.26004 3.05699 3.24406 3.12833 3.24375 3.20059L3.23437 5.30371L1.37 6.36621C1.30762 6.40172 1.25362 6.45024 1.21167 6.50848C1.16972 6.56672 1.1408 6.6333 1.12687 6.70371C0.956245 7.56114 0.956245 8.44379 1.12687 9.30121C1.1408 9.37162 1.16972 9.43821 1.21167 9.49644C1.25362 9.55468 1.30762 9.6032 1.37 9.63871L3.23437 10.7012L3.24187 12.8031C3.2421 12.8755 3.25803 12.9469 3.28857 13.0125C3.31911 13.0781 3.36352 13.1363 3.41875 13.1831C4.09504 13.7552 4.87384 14.1935 5.71375 14.475C5.77989 14.4973 5.84999 14.5056 5.91953 14.4993C5.98907 14.4929 6.0565 14.4721 6.1175 14.4381L8 13.3837L9.8825 14.4368C9.957 14.4783 10.041 14.4999 10.1262 14.4993C10.1809 14.4993 10.2351 14.4905 10.2869 14.4731C11.1261 14.19 11.904 13.7504 12.5794 13.1775C12.6345 13.1308 12.6789 13.0727 12.7094 13.0072C12.74 12.9417 12.7559 12.8703 12.7562 12.7981L12.7656 10.695L14.63 9.63246C14.6924 9.59695 14.7464 9.54843 14.7883 9.49019C14.8303 9.43196 14.8592 9.36537 14.8731 9.29496C15.0428 8.43822 15.0422 7.55646 14.8712 6.69996ZM8 10.4993C7.50554 10.4993 7.02219 10.3527 6.61107 10.078C6.19995 9.80331 5.87952 9.41286 5.6903 8.95605C5.50108 8.49923 5.45157 7.99656 5.54803 7.51161C5.6445 7.02666 5.8826 6.5812 6.23223 6.23157C6.58186 5.88194 7.02732 5.64384 7.51227 5.54737C7.99722 5.45091 8.49989 5.50042 8.95671 5.68964C9.41352 5.87886 9.80397 6.19929 10.0787 6.61041C10.3534 7.02153 10.5 7.50488 10.5 7.99934C10.5 8.66238 10.2366 9.29826 9.76776 9.7671C9.29892 10.2359 8.66304 10.4993 8 10.4993Z" fill="#7764A3"/>
</svg>
