<svg width="24" height="21" viewBox="0 0 24 21" fill="none" xmlns="http://www.w3.org/2000/svg">
<path d="M23.6136 5.64964C23.4692 5.49003 23.292 5.36233 23.0936 5.27497C22.8953 5.18761 22.6803 5.14258 22.4629 5.14286H17.0178V4.92857C17.0178 3.62143 16.4891 2.36783 15.5482 1.44354C14.6072 0.519258 13.331 0 12.0002 0C10.6695 0 9.39328 0.519258 8.45231 1.44354C7.51134 2.36783 6.98271 3.62143 6.98271 4.92857V5.14286H1.53759C1.32107 5.14139 1.10671 5.18517 0.908731 5.27129C0.71075 5.35741 0.533678 5.48391 0.389264 5.64238C0.24485 5.80085 0.136395 5.98767 0.0710969 6.19046C0.00579827 6.39324 -0.0148513 6.60735 0.0105182 6.81857L1.56486 19.6757C1.61026 20.0418 1.79078 20.3788 2.07223 20.6229C2.35368 20.8669 2.7165 21.0011 3.09194 21H20.9085C21.284 21.0011 21.6468 20.8669 21.9283 20.6229C22.2097 20.3788 22.3902 20.0418 22.4356 19.6757L23.99 6.81857C24.0146 6.60868 23.9938 6.39606 23.9289 6.19462C23.8641 5.99317 23.7566 5.80746 23.6136 5.64964ZM8.29163 4.92857C8.29163 3.96242 8.68236 3.03585 9.37786 2.35268C10.0734 1.66951 11.0167 1.28571 12.0002 1.28571C12.9838 1.28571 13.9271 1.66951 14.6226 2.35268C15.3181 3.03585 15.7089 3.96242 15.7089 4.92857V5.14286H8.29163V4.92857ZM21.1332 19.5246C21.127 19.5782 21.1003 19.6275 21.0587 19.6627C21.017 19.6978 20.9634 19.7163 20.9085 19.7143H3.09194C3.03706 19.7163 2.98344 19.6978 2.94179 19.6627C2.90014 19.6275 2.87352 19.5782 2.86724 19.5246L1.31071 6.6675C1.30704 6.638 1.30992 6.60808 1.31914 6.57978C1.32837 6.55148 1.34373 6.52548 1.36416 6.50357C1.38569 6.47961 1.41224 6.4605 1.44198 6.44756C1.47173 6.43461 1.50397 6.42814 1.5365 6.42857H22.4629C22.4954 6.42814 22.5277 6.43461 22.5574 6.44756C22.5872 6.4605 22.6137 6.47961 22.6352 6.50357C22.6557 6.52548 22.671 6.55148 22.6802 6.57978C22.6895 6.60808 22.6924 6.638 22.6887 6.6675L21.1332 19.5246Z" fill="#343330"/>
</svg>
