<svg width="24" height="21" viewBox="0 0 24 21" fill="none" xmlns="http://www.w3.org/2000/svg">
<path d="M23.5674 5.60699C23.4048 5.42817 23.2053 5.28518 22.9822 5.18744C22.7591 5.0897 22.5174 5.03945 22.273 5.03999H17.1384C17.1384 3.7033 16.5965 2.42136 15.632 1.47618C14.6675 0.530997 13.3593 0 11.9952 0C10.6312 0 9.32301 0.530997 8.35848 1.47618C7.39395 2.42136 6.85208 3.7033 6.85208 5.03999H1.71749C1.47454 5.04063 1.23446 5.09146 1.01291 5.18916C0.791359 5.28686 0.593316 5.42923 0.431702 5.60699C0.271437 5.78409 0.151172 5.99238 0.0787871 6.2182C0.00640255 6.44403 -0.0164672 6.68229 0.0116768 6.91739L1.53962 19.5174C1.58918 19.9279 1.79146 20.3061 2.10776 20.5796C2.42406 20.8532 2.83217 21.0028 3.25401 21H20.7461C21.168 21.0028 21.5761 20.8532 21.8924 20.5796C22.2087 20.3061 22.4109 19.9279 22.4605 19.5174L23.9884 6.91739C24.0164 6.68222 23.9934 6.44391 23.9208 6.21808C23.8483 5.99225 23.7278 5.784 23.5674 5.60699ZM11.9952 1.68C12.9046 1.68 13.7767 2.03399 14.4197 2.66412C15.0628 3.29424 15.424 4.14886 15.424 5.03999H8.56647C8.56647 4.14886 8.92771 3.29424 9.57073 2.66412C10.2138 2.03399 11.0859 1.68 11.9952 1.68Z" fill="#343330"/>
</svg>
