<svg width="22" height="21" viewBox="0 0 22 21" fill="none" xmlns="http://www.w3.org/2000/svg">
<path d="M21.8991 20.0135C20.1962 17.0899 17.5229 15.0385 14.4165 14.1685C15.9268 13.4057 17.1345 12.1599 17.8448 10.6318C18.5552 9.10373 18.7269 7.38248 18.3322 5.74561C17.9375 4.10873 16.9994 2.65163 15.6692 1.60926C14.339 0.56689 12.6942 0 11 0C9.30583 0 7.66104 0.56689 6.33083 1.60926C5.00062 2.65163 4.06253 4.10873 3.66782 5.74561C3.27311 7.38248 3.44478 9.10373 4.15516 10.6318C4.86553 12.1599 6.07321 13.4057 7.58345 14.1685C4.47711 15.0374 1.80376 17.0888 0.10087 20.0135C0.0541113 20.0865 0.0227143 20.1683 0.00856829 20.2537C-0.0055777 20.3392 -0.00218017 20.4266 0.0185562 20.5107C0.0392925 20.5948 0.0769391 20.6739 0.129231 20.7431C0.181524 20.8124 0.247381 20.8705 0.322841 20.9138C0.398302 20.9571 0.481806 20.9849 0.56833 20.9953C0.654854 21.0058 0.74261 20.9987 0.826318 20.9746C0.910027 20.9504 0.987958 20.9097 1.05542 20.8549C1.12289 20.8001 1.17849 20.7323 1.2189 20.6555C3.288 17.1038 6.94366 14.9839 11 14.9839C15.0563 14.9839 18.712 17.1038 20.7811 20.6555C20.8215 20.7323 20.8771 20.8001 20.9446 20.8549C21.012 20.9097 21.09 20.9504 21.1737 20.9746C21.2574 20.9987 21.3451 21.0058 21.4317 20.9953C21.5182 20.9849 21.6017 20.9571 21.6772 20.9138C21.7526 20.8705 21.8185 20.8124 21.8708 20.7431C21.9231 20.6739 21.9607 20.5948 21.9814 20.5107C22.0022 20.4266 22.0056 20.3392 21.9914 20.2537C21.9773 20.1683 21.9459 20.0865 21.8991 20.0135ZM4.75285 7.49306C4.75285 6.26549 5.11924 5.06549 5.80568 4.0448C6.49213 3.02411 7.4678 2.22858 8.60932 1.75881C9.75084 1.28904 11.0069 1.16613 12.2188 1.40562C13.4306 1.6451 14.5437 2.23623 15.4174 3.10426C16.2911 3.97228 16.8861 5.07821 17.1271 6.28219C17.3682 7.48617 17.2445 8.73413 16.7716 9.86826C16.2988 11.0024 15.4981 11.9717 14.4707 12.6537C13.4434 13.3357 12.2356 13.6998 11 13.6998C9.34376 13.6978 7.75594 13.0432 6.5848 11.8797C5.41366 10.7161 4.75484 9.13857 4.75285 7.49306Z" fill="#343330"/>
</svg>
