<svg width="22" height="21" viewBox="0 0 22 21" fill="none" xmlns="http://www.w3.org/2000/svg">
<path d="M21.8872 20.5801C21.8129 20.7078 21.706 20.8138 21.5773 20.8875C21.4487 20.9612 21.3027 21 21.1541 21H0.845333C0.696867 20.9998 0.551055 20.9609 0.422537 20.8872C0.294019 20.8134 0.187319 20.7073 0.113152 20.5797C0.0389856 20.452 -3.80877e-05 20.3073 2.78947e-08 20.1599C3.81435e-05 20.0125 0.0391366 19.8678 0.11337 19.7402C1.72432 16.9759 4.20686 14.9938 7.10404 14.0541C5.67097 13.2074 4.55756 11.9171 3.9348 10.3815C3.31204 8.84592 3.21436 7.14987 3.65677 5.55383C4.09918 3.95779 5.05721 2.55001 6.38374 1.5467C7.71027 0.543381 9.33195 0 10.9997 0C12.6675 0 14.2892 0.543381 15.6157 1.5467C16.9423 2.55001 17.9003 3.95779 18.3427 5.55383C18.7851 7.14987 18.6874 8.84592 18.0647 10.3815C17.4419 11.9171 16.3285 13.2074 14.8954 14.0541C17.7926 14.9938 20.2751 16.9759 21.8861 19.7402C21.9605 19.8678 21.9998 20.0125 22 20.16C22.0002 20.3074 21.9613 20.4523 21.8872 20.5801Z" fill="#343330"/>
</svg>
